# xmcd
#
# Track frame offsets:
#	150
#	7208
#	45449
#	74533
#	112070
#	142599
#	179229
#	217131
#
# Disc length: 3480 seconds
#
# Revision: 2
# Processed by: cddbd v1.5.2PL0 Copyright (c) Steve Scherf et al.
# Submitted via: audiograbber 1.83.01
#
DISCID=7c0d9608
DTITLE=Grateful Dead - 93-05-26 Cal Expo Amphitheatre, Sacramento CA
DYEAR=1900
DGENRE=
TTITLE0=Tuning
TTITLE1=Samson and Delilah
TTITLE2=Here Comes Sunshine
TTITLE3=Walkin' Blues
TTITLE4=Broken Arrow
TTITLE5=Ramble On Rose
TTITLE6=Memphis Blues
TTITLE7=Deal
EXTD=
EXTT0=
EXTT1=
EXTT2=
EXTT3=
EXTT4=
EXTT5=
EXTT6=
EXTT7=
PLAYORDER=
